<mxfile host="Electron" modified="2024-06-06T04:31:47.274Z" agent="Mozilla/5.0 (Windows NT 10.0; Win64; x64) AppleWebKit/537.36 (KHTML, like Gecko) draw.io/22.1.2 Chrome/114.0.5735.289 Electron/25.9.4 Safari/537.36" etag="Gj66QBmNrDRmxoyC_RKj" version="22.1.2" type="device">
  <diagram name="Page-1" id="7ZnsxoaL_BHCXnx-ISNz">
    <mxGraphModel dx="1277" dy="803" grid="1" gridSize="10" guides="1" tooltips="1" connect="1" arrows="1" fold="1" page="1" pageScale="1" pageWidth="1169" pageHeight="827" math="0" shadow="0">
      <root>
        <mxCell id="0" />
        <mxCell id="1" parent="0" />
        <mxCell id="hg8_UCo2Yx6Xpll2Kdqw-2" value="us-east-1&lt;br&gt;" style="points=[[0,0],[0.25,0],[0.5,0],[0.75,0],[1,0],[1,0.25],[1,0.5],[1,0.75],[1,1],[0.75,1],[0.5,1],[0.25,1],[0,1],[0,0.75],[0,0.5],[0,0.25]];outlineConnect=0;gradientColor=none;html=1;whiteSpace=wrap;fontSize=12;fontStyle=0;container=1;pointerEvents=0;collapsible=0;recursiveResize=0;shape=mxgraph.aws4.group;grIcon=mxgraph.aws4.group_region;strokeColor=#00A4A6;fillColor=none;verticalAlign=top;align=left;spacingLeft=30;fontColor=#147EBA;dashed=1;" parent="1" vertex="1">
          <mxGeometry x="240" y="80" width="882.5" height="630" as="geometry" />
        </mxCell>
        <mxCell id="hg8_UCo2Yx6Xpll2Kdqw-24" style="edgeStyle=orthogonalEdgeStyle;rounded=0;orthogonalLoop=1;jettySize=auto;html=1;entryX=0.5;entryY=0;entryDx=0;entryDy=0;" parent="hg8_UCo2Yx6Xpll2Kdqw-2" source="hg8_UCo2Yx6Xpll2Kdqw-4" target="hg8_UCo2Yx6Xpll2Kdqw-19" edge="1">
          <mxGeometry relative="1" as="geometry" />
        </mxCell>
        <mxCell id="hg8_UCo2Yx6Xpll2Kdqw-4" value="" style="sketch=0;outlineConnect=0;fontColor=#232F3E;gradientColor=none;fillColor=#ED7100;strokeColor=none;dashed=0;verticalLabelPosition=bottom;verticalAlign=top;align=center;html=1;fontSize=12;fontStyle=0;aspect=fixed;pointerEvents=1;shape=mxgraph.aws4.lambda_function;" parent="hg8_UCo2Yx6Xpll2Kdqw-2" vertex="1">
          <mxGeometry x="485.5" y="231" width="80" height="80" as="geometry" />
        </mxCell>
        <mxCell id="hg8_UCo2Yx6Xpll2Kdqw-18" value="Notify my" style="rounded=1;whiteSpace=wrap;html=1;strokeWidth=2;fillWeight=4;hachureGap=8;hachureAngle=45;fillColor=#dae8fc;sketch=1;strokeColor=#6c8ebf;" parent="hg8_UCo2Yx6Xpll2Kdqw-2" vertex="1">
          <mxGeometry x="707.5" y="436" width="120" height="60" as="geometry" />
        </mxCell>
        <mxCell id="hg8_UCo2Yx6Xpll2Kdqw-22" style="edgeStyle=orthogonalEdgeStyle;rounded=0;orthogonalLoop=1;jettySize=auto;html=1;exitX=1;exitY=0.5;exitDx=0;exitDy=0;entryX=0;entryY=0.5;entryDx=0;entryDy=0;" parent="hg8_UCo2Yx6Xpll2Kdqw-2" source="hg8_UCo2Yx6Xpll2Kdqw-19" target="hg8_UCo2Yx6Xpll2Kdqw-18" edge="1">
          <mxGeometry relative="1" as="geometry" />
        </mxCell>
        <mxCell id="hg8_UCo2Yx6Xpll2Kdqw-23" value="Failed" style="edgeLabel;html=1;align=center;verticalAlign=middle;resizable=0;points=[];" parent="hg8_UCo2Yx6Xpll2Kdqw-22" vertex="1" connectable="0">
          <mxGeometry x="0.1002" relative="1" as="geometry">
            <mxPoint as="offset" />
          </mxGeometry>
        </mxCell>
        <mxCell id="hg8_UCo2Yx6Xpll2Kdqw-19" value="if condition" style="rhombus;whiteSpace=wrap;html=1;" parent="hg8_UCo2Yx6Xpll2Kdqw-2" vertex="1">
          <mxGeometry x="485.5" y="426" width="80" height="80" as="geometry" />
        </mxCell>
        <mxCell id="hg8_UCo2Yx6Xpll2Kdqw-9" style="edgeStyle=orthogonalEdgeStyle;rounded=0;orthogonalLoop=1;jettySize=auto;html=1;" parent="hg8_UCo2Yx6Xpll2Kdqw-2" source="hg8_UCo2Yx6Xpll2Kdqw-5" target="hg8_UCo2Yx6Xpll2Kdqw-4" edge="1">
          <mxGeometry relative="1" as="geometry" />
        </mxCell>
        <mxCell id="hg8_UCo2Yx6Xpll2Kdqw-10" value="Invoke lambda function" style="edgeLabel;html=1;align=center;verticalAlign=middle;resizable=0;points=[];" parent="hg8_UCo2Yx6Xpll2Kdqw-9" vertex="1" connectable="0">
          <mxGeometry x="0.0052" y="2" relative="1" as="geometry">
            <mxPoint x="-1" as="offset" />
          </mxGeometry>
        </mxCell>
        <mxCell id="hg8_UCo2Yx6Xpll2Kdqw-5" value="" style="sketch=0;outlineConnect=0;fontColor=#232F3E;gradientColor=none;fillColor=#7AA116;strokeColor=none;dashed=0;verticalLabelPosition=bottom;verticalAlign=top;align=center;html=1;fontSize=12;fontStyle=0;aspect=fixed;pointerEvents=1;shape=mxgraph.aws4.bucket;" parent="hg8_UCo2Yx6Xpll2Kdqw-2" vertex="1">
          <mxGeometry x="87.5" y="231" width="75" height="78" as="geometry" />
        </mxCell>
        <mxCell id="hg8_UCo2Yx6Xpll2Kdqw-7" style="edgeStyle=orthogonalEdgeStyle;rounded=0;orthogonalLoop=1;jettySize=auto;html=1;" parent="hg8_UCo2Yx6Xpll2Kdqw-2" source="hg8_UCo2Yx6Xpll2Kdqw-6" target="hg8_UCo2Yx6Xpll2Kdqw-5" edge="1">
          <mxGeometry relative="1" as="geometry">
            <mxPoint x="125" y="211" as="targetPoint" />
          </mxGeometry>
        </mxCell>
        <mxCell id="hg8_UCo2Yx6Xpll2Kdqw-8" value="Upload an object" style="edgeLabel;html=1;align=center;verticalAlign=middle;resizable=0;points=[];" parent="hg8_UCo2Yx6Xpll2Kdqw-7" vertex="1" connectable="0">
          <mxGeometry x="-0.1633" y="-1" relative="1" as="geometry">
            <mxPoint as="offset" />
          </mxGeometry>
        </mxCell>
        <mxCell id="hg8_UCo2Yx6Xpll2Kdqw-6" value="" style="image;aspect=fixed;html=1;points=[];align=center;fontSize=12;image=img/lib/azure2/general/File.svg;" parent="hg8_UCo2Yx6Xpll2Kdqw-2" vertex="1">
          <mxGeometry x="107.5" y="61" width="35" height="43.13" as="geometry" />
        </mxCell>
        <mxCell id="hg8_UCo2Yx6Xpll2Kdqw-11" value="" style="sketch=0;outlineConnect=0;fontColor=#232F3E;gradientColor=none;fillColor=#7AA116;strokeColor=none;dashed=0;verticalLabelPosition=bottom;verticalAlign=top;align=center;html=1;fontSize=12;fontStyle=0;aspect=fixed;pointerEvents=1;shape=mxgraph.aws4.bucket;" parent="hg8_UCo2Yx6Xpll2Kdqw-2" vertex="1">
          <mxGeometry x="87.5" y="426" width="75" height="78" as="geometry" />
        </mxCell>
        <mxCell id="hg8_UCo2Yx6Xpll2Kdqw-16" value="Confugre lifecycle expiration for 91 days for all objects" style="rounded=1;whiteSpace=wrap;html=1;strokeWidth=2;fillWeight=4;hachureGap=8;hachureAngle=45;fillColor=#dae8fc;sketch=1;strokeColor=#6c8ebf;" parent="hg8_UCo2Yx6Xpll2Kdqw-2" vertex="1">
          <mxGeometry x="65" y="326" width="120" height="60" as="geometry" />
        </mxCell>
        <mxCell id="hg8_UCo2Yx6Xpll2Kdqw-17" value="Configre lifecycle archive storage class on 1 day" style="rounded=1;whiteSpace=wrap;html=1;strokeWidth=2;fillWeight=4;hachureGap=8;hachureAngle=45;fillColor=#dae8fc;sketch=1;strokeColor=#6c8ebf;" parent="hg8_UCo2Yx6Xpll2Kdqw-2" vertex="1">
          <mxGeometry x="65" y="526" width="120" height="60" as="geometry" />
        </mxCell>
        <mxCell id="hg8_UCo2Yx6Xpll2Kdqw-20" style="edgeStyle=orthogonalEdgeStyle;rounded=0;orthogonalLoop=1;jettySize=auto;html=1;exitX=0;exitY=0.5;exitDx=0;exitDy=0;" parent="hg8_UCo2Yx6Xpll2Kdqw-2" source="hg8_UCo2Yx6Xpll2Kdqw-19" target="hg8_UCo2Yx6Xpll2Kdqw-11" edge="1">
          <mxGeometry relative="1" as="geometry" />
        </mxCell>
        <mxCell id="hg8_UCo2Yx6Xpll2Kdqw-21" value="Success&lt;br&gt;Copy the object to archive Bucket" style="edgeLabel;html=1;align=center;verticalAlign=middle;resizable=0;points=[];" parent="hg8_UCo2Yx6Xpll2Kdqw-20" vertex="1" connectable="0">
          <mxGeometry x="-0.2399" y="3" relative="1" as="geometry">
            <mxPoint as="offset" />
          </mxGeometry>
        </mxCell>
      </root>
    </mxGraphModel>
  </diagram>
</mxfile>
